<?xml version="1.0" encoding="UTF-8"?>
<svg width="256px" height="336px" viewBox="0 0 256 336" version="1.1" xmlns="http://www.w3.org/2000/svg" xmlns:xlink="http://www.w3.org/1999/xlink">
    <!-- Generator: Sketch 63.1 (92452) - https://sketch.com -->
    <title>backsvg</title>
    <desc>Created with Sketch.</desc>
    <defs>
        <path d="M6,-6.123234e-17 L5.999,4 L250,4 L250,-6.123234e-17 L252,-6.123234e-17 L252,4 L256,4 L256,6 L252,6 L252,330 L256,330 L256,332 L252,332 L252,336 L250,336 L250,332 L5.999,332 L6,336 L4,336 L3.999,332 L0,332 L0,330 L3.999,330 L3.999,6 L0,6 L0,4 L3.999,4 L4,-6.123234e-17 L6,-6.123234e-17 Z M250,330 L250,6 L5.999,6 L5.999,330 L250,330 Z" id="path-1"></path>
        <filter x="-4.7%" y="-3.6%" width="109.4%" height="107.1%" filterUnits="objectBoundingBox" id="filter-2">
            <feMorphology radius="2" operator="dilate" in="SourceAlpha" result="shadowSpreadOuter1"></feMorphology>
            <feOffset dx="0" dy="0" in="shadowSpreadOuter1" result="shadowOffsetOuter1"></feOffset>
            <feGaussianBlur stdDeviation="2" in="shadowOffsetOuter1" result="shadowBlurOuter1"></feGaussianBlur>
            <feColorMatrix values="0 0 0 0 0.273068281   0 0 0 0 0.0198342413   0 0 0 0 0.517861187  0 0 0 1 0" type="matrix" in="shadowBlurOuter1"></feColorMatrix>
        </filter>
    </defs>
    <g id="back" stroke="none" stroke-width="1" fill="none" fill-rule="evenodd">
        <rect fill="#0B0133" x="0" y="0" width="256" height="336"></rect>
        <g id="Group-2">
            <g id="Combined-Shape">
                <use fill="black" fill-opacity="1" filter="url(#filter-2)" xlink:href="#path-1"></use>
                <use fill="#B465FF" fill-rule="evenodd" xlink:href="#path-1"></use>
            </g>
        </g>
    </g>
</svg>