<?xml version="1.0" encoding="UTF-8"?>
<svg width="256px" height="336px" viewBox="0 0 256 336" version="1.1" xmlns="http://www.w3.org/2000/svg" xmlns:xlink="http://www.w3.org/1999/xlink">
    <!-- Generator: Sketch 63.1 (92452) - https://sketch.com -->
    <title>club-9@1.5x</title>
    <desc>Created with Sketch.</desc>
    <defs>
        <rect id="path-1" x="0" y="94" width="256" height="2"></rect>
        <filter x="-4.7%" y="-600.0%" width="109.4%" height="1300.0%" filterUnits="objectBoundingBox" id="filter-2">
            <feMorphology radius="2" operator="dilate" in="SourceAlpha" result="shadowSpreadOuter1"></feMorphology>
            <feOffset dx="0" dy="0" in="shadowSpreadOuter1" result="shadowOffsetOuter1"></feOffset>
            <feGaussianBlur stdDeviation="2" in="shadowOffsetOuter1" result="shadowBlurOuter1"></feGaussianBlur>
            <feColorMatrix values="0 0 0 0 0   0 0 0 0 0.364509804   0 0 0 0 0.560784314  0 0 0 1 0" type="matrix" in="shadowBlurOuter1"></feColorMatrix>
        </filter>
        <path d="M159.87248,203.012272 C167.33994,199.338905 174.128541,199.883108 180.238282,204.64488 C186.755338,209.678754 190.28541,216.957463 190.828499,226.481008 C191.371587,233.14749 190.62484,238.38544 188.58826,242.194858 C183.293152,253.895213 175.011059,259.949467 163.741982,260.357619 C156.410293,260.493669 150.639983,257.636606 146.431051,251.786428 L141.543258,242.398934 L139.30302,242.194858 C138.081072,242.194858 137.198554,242.943136 136.655466,244.439693 C135.433518,248.249112 135.705062,252.126555 137.470098,256.072024 C138.013186,257.976733 141.746916,265.119391 148.671289,277.5 L106.921395,277.5 L118.529902,256.072024 C120.294938,252.398656 120.634368,248.521213 119.548192,244.439693 C118.0547,240.902377 116.35755,240.222124 114.456742,242.398934 C111.60553,254.779542 104.205955,260.765771 92.2580179,260.357619 C81.5320289,259.949467 73.2499362,253.895213 67.4117397,242.194858 C65.3751595,238.249389 64.6284134,233.011439 65.1715015,226.481008 C65.7145895,216.957463 69.1088898,209.678754 75.3544024,204.64488 C85.4015313,197.162095 96.1275202,198.998778 107.532369,210.154931 C109.025861,210.699134 110.451467,209.746779 111.809188,207.297868 C112.895364,205.393159 110.519353,201.515715 104.681157,195.665538 C98.4356444,189.271157 96.9421523,181.584296 100.200681,172.604953 C102.508805,164.714016 107.871799,159.612117 116.289664,157.299256 C120.227052,155.530598 123.892897,154.782319 127.287197,155.05442 L128.712803,155.05442 L139.913994,157.299256 C147.924543,159.612117 153.219651,164.714016 155.799319,172.604953 C159.057848,181.584296 157.564356,189.271157 151.318843,195.665538 C145.344875,201.515715 142.900978,205.393159 143.987154,207.297868 C145.480647,209.88283 147.042025,210.835184 148.671289,210.154931 L159.87248,203.012272" id="path-3"></path>
        <filter x="-21.4%" y="-22.0%" width="142.9%" height="144.1%" filterUnits="objectBoundingBox" id="filter-4">
            <feMorphology radius="7" operator="dilate" in="SourceAlpha" result="shadowSpreadOuter1"></feMorphology>
            <feOffset dx="0" dy="0" in="shadowSpreadOuter1" result="shadowOffsetOuter1"></feOffset>
            <feMorphology radius="7" operator="erode" in="SourceAlpha" result="shadowInner"></feMorphology>
            <feOffset dx="0" dy="0" in="shadowInner" result="shadowInner"></feOffset>
            <feComposite in="shadowOffsetOuter1" in2="shadowInner" operator="out" result="shadowOffsetOuter1"></feComposite>
            <feGaussianBlur stdDeviation="5" in="shadowOffsetOuter1" result="shadowBlurOuter1"></feGaussianBlur>
            <feColorMatrix values="0 0 0 0 0   0 0 0 0 0.36544101   0 0 0 0 0.562216938  0 0 0 1 0" type="matrix" in="shadowBlurOuter1"></feColorMatrix>
        </filter>
    </defs>
    <g id="club-9" stroke="none" stroke-width="1" fill="none" fill-rule="evenodd">
        <rect fill="#0B0133" x="0" y="0" width="256" height="336"></rect>
        <text id="9" font-family="OdibeeSans-Regular, Odibee Sans" font-size="82" font-weight="normal" fill="#47C3FD">
            <tspan x="171.41" y="74">9</tspan>
        </text>
        <g id="Rectangle">
            <use fill="black" fill-opacity="1" filter="url(#filter-2)" xlink:href="#path-1"></use>
            <use fill="#47C3FD" fill-rule="evenodd" xlink:href="#path-1"></use>
        </g>
        <g id="Path">
            <use fill="black" fill-opacity="1" filter="url(#filter-4)" xlink:href="#path-3"></use>
            <use stroke="#47C3FD" stroke-width="4" xlink:href="#path-3"></use>
        </g>
        <path d="M241.082773,40.6693938 C242.742209,39.85309 244.250787,39.9740239 245.608507,41.0321956 C247.056742,42.1508342 247.841202,43.7683252 247.961889,45.8846685 C248.082575,47.3661089 247.916631,48.5300977 247.464058,49.3766351 C246.287367,51.9767141 244.446902,53.3221038 241.942663,53.4128042 C240.313399,53.4430377 239.031107,52.8081347 238.095789,51.5080952 L237.009613,49.4219853 L236.511782,49.3766351 C236.240238,49.3766351 236.044123,49.5429192 235.923437,49.8754874 C235.651893,50.7220248 235.712236,51.5836789 236.104466,52.4604497 C236.225152,52.8837183 237.05487,54.4709759 238.59362,57.2222222 L229.315866,57.2222222 L231.895534,52.4604497 C232.287764,51.6441458 232.363193,50.7824917 232.121821,49.8754874 C231.789933,49.089417 231.412789,48.9382497 230.990387,49.4219853 C230.356784,52.1732317 228.712434,53.5035046 226.057337,53.4128042 C223.673784,53.3221038 221.833319,51.9767141 220.535942,49.3766351 C220.083369,48.4998643 219.917425,47.3358754 220.038111,45.8846685 C220.158798,43.7683252 220.913087,42.1508342 222.300978,41.0321956 C224.533674,39.3693544 226.917227,39.7775063 229.451638,42.2566514 C229.783525,42.3775853 230.100326,42.1659509 230.402042,41.6217484 C230.643414,41.1984797 230.115412,40.3368256 228.818035,39.0367861 C227.430143,37.6158127 227.098256,35.9076213 227.822373,33.9122119 C228.33529,32.1586702 229.527066,31.0249149 231.397703,30.5109458 C232.272678,30.1179106 233.08731,29.9516264 233.841599,30.0120934 L234.158401,30.0120934 L236.647554,30.5109458 C238.427676,31.0249149 239.604367,32.1586702 240.177627,33.9122119 C240.901744,35.9076213 240.569857,37.6158127 239.181965,39.0367861 C237.854417,40.3368256 237.311329,41.1984797 237.552701,41.6217484 C237.884588,42.1961844 238.231561,42.4078187 238.59362,42.2566514 L241.082773,40.6693938" id="Path-Copy" fill="#47C3FC"></path>
    </g>
</svg>