<?xml version="1.0" encoding="UTF-8"?>
<svg width="256px" height="336px" viewBox="0 0 256 336" version="1.1" xmlns="http://www.w3.org/2000/svg" xmlns:xlink="http://www.w3.org/1999/xlink">
    <!-- Generator: Sketch 63.1 (92452) - https://sketch.com -->
    <title>heart-11</title>
    <desc>Created with Sketch.</desc>
    <defs>
        <rect id="path-1" x="0" y="94" width="256" height="2"></rect>
        <filter x="-4.7%" y="-600.0%" width="109.4%" height="1300.0%" filterUnits="objectBoundingBox" id="filter-2">
            <feMorphology radius="2" operator="dilate" in="SourceAlpha" result="shadowSpreadOuter1"></feMorphology>
            <feOffset dx="0" dy="0" in="shadowSpreadOuter1" result="shadowOffsetOuter1"></feOffset>
            <feGaussianBlur stdDeviation="2" in="shadowOffsetOuter1" result="shadowBlurOuter1"></feGaussianBlur>
            <feColorMatrix values="0 0 0 0 0.510331748   0 0 0 0 0   0 0 0 0 0.289187991  0 0 0 1 0" type="matrix" in="shadowBlurOuter1"></feColorMatrix>
        </filter>
        <path d="M71.35,206.632143 C75.4373563,213.74881 80.2545977,219.994048 85.8017241,225.367857 C108.282184,247.879762 122.514943,265.090476 128.5,277 C134.777011,265.090476 149.155747,247.879762 171.636207,225.367857 C176.891379,219.994048 181.562644,213.74881 185.65,206.632143 C189.883333,199.079762 192,192.39881 192,186.589286 C192,178.746429 189.226437,171.702381 183.67931,165.457143 C177.548276,158.485714 169.592529,155 159.812069,155 C150.323563,155 142.586782,158.413095 136.601724,165.239286 C131.492529,170.758333 128.791954,177.221429 128.5,184.628571 C128.354023,177.221429 125.726437,170.758333 120.617241,165.239286 C114.632184,158.413095 106.822414,155 97.187931,155 C87.4074713,155 79.4517241,158.485714 73.3206897,165.457143 C67.7735632,171.702381 65,178.746429 65,186.589286 C65,192.39881 67.1166667,199.079762 71.35,206.632143" id="path-3"></path>
        <filter x="-21.3%" y="-22.1%" width="142.5%" height="151.1%" filterUnits="objectBoundingBox" id="filter-4">
            <feMorphology radius="7" operator="dilate" in="SourceAlpha" result="shadowSpreadOuter1"></feMorphology>
            <feOffset dx="0" dy="0" in="shadowSpreadOuter1" result="shadowOffsetOuter1"></feOffset>
            <feMorphology radius="7" operator="erode" in="SourceAlpha" result="shadowInner"></feMorphology>
            <feOffset dx="0" dy="0" in="shadowInner" result="shadowInner"></feOffset>
            <feComposite in="shadowOffsetOuter1" in2="shadowInner" operator="out" result="shadowOffsetOuter1"></feComposite>
            <feGaussianBlur stdDeviation="5" in="shadowOffsetOuter1" result="shadowBlurOuter1"></feGaussianBlur>
            <feColorMatrix values="0 0 0 0 0.509803922   0 0 0 0 0   0 0 0 0 0.290196078  0 0 0 1 0" type="matrix" in="shadowBlurOuter1"></feColorMatrix>
        </filter>
    </defs>
    <g id="heart-11" stroke="none" stroke-width="1" fill="none" fill-rule="evenodd">
        <rect fill="#0B0133" x="0" y="0" width="256" height="336"></rect>
        <text id="J" font-family="OdibeeSans-Regular, Odibee Sans" font-size="82" font-weight="normal" fill="#FF066A">
            <tspan x="169.41" y="74">J</tspan>
        </text>
        <g id="Rectangle">
            <use fill="black" fill-opacity="1" filter="url(#filter-2)" xlink:href="#path-1"></use>
            <use fill="#FF7CB5" fill-rule="evenodd" xlink:href="#path-1"></use>
        </g>
        <g id="Path">
            <use fill="black" fill-opacity="1" filter="url(#filter-4)" xlink:href="#path-3"></use>
            <use stroke="#FF7CB5" stroke-width="4" xlink:href="#path-3"></use>
        </g>
        <path d="M219.5,43.85 C220.465517,45.4833333 221.603448,46.9166667 222.913793,48.15 C228.224138,53.3166667 231.586207,57.2666667 233,60 C234.482759,57.2666667 237.87931,53.3166667 243.189655,48.15 C244.431034,46.9166667 245.534483,45.4833333 246.5,43.85 C247.5,42.1166667 248,40.5833333 248,39.25 C248,37.45 247.344828,35.8333333 246.034483,34.4 C244.586207,32.8 242.706897,32 240.396552,32 C238.155172,32 236.327586,32.7833333 234.913793,34.35 C233.706897,35.6166667 233.068966,37.1 233,38.8 C232.965517,37.1 232.344828,35.6166667 231.137931,34.35 C229.724138,32.7833333 227.87931,32 225.603448,32 C223.293103,32 221.413793,32.8 219.965517,34.4 C218.655172,35.8333333 218,37.45 218,39.25 C218,40.5833333 218.5,42.1166667 219.5,43.85" id="Path-Copy" fill="#FF066A"></path>
    </g>
</svg>