<?xml version="1.0" encoding="UTF-8"?>
<svg width="256px" height="336px" viewBox="0 0 256 336" version="1.1" xmlns="http://www.w3.org/2000/svg" xmlns:xlink="http://www.w3.org/1999/xlink">
    <!-- Generator: Sketch 63.1 (92452) - https://sketch.com -->
    <title>joker</title>
    <desc>Created with Sketch.</desc>
    <defs>
        <rect id="path-1" x="0" y="94" width="256" height="2"></rect>
        <filter x="-4.7%" y="-600.0%" width="109.4%" height="1300.0%" filterUnits="objectBoundingBox" id="filter-2">
            <feMorphology radius="2" operator="dilate" in="SourceAlpha" result="shadowSpreadOuter1"></feMorphology>
            <feOffset dx="0" dy="0" in="shadowSpreadOuter1" result="shadowOffsetOuter1"></feOffset>
            <feGaussianBlur stdDeviation="2" in="shadowOffsetOuter1" result="shadowBlurOuter1"></feGaussianBlur>
            <feColorMatrix values="0 0 0 0 0.623529412   0 0 0 0 0.290196078   0 0 0 0 0  0 0 0 1 0" type="matrix" in="shadowBlurOuter1"></feColorMatrix>
        </filter>
        <path d="M183.958695,207.574543 C185.813129,209.313075 187.406783,211.341362 188.739657,213.659405 C193.028036,220.845336 193.085987,227.857414 188.913511,234.69564 L187.957318,235.999538 C189.116339,237.564217 189.69585,239.3607 189.69585,241.388987 C189.69585,243.938834 188.768633,246.140974 186.914199,247.995408 C186.044933,248.922625 185.059765,249.618038 183.958695,250.081646 L180.394705,250.777059 C177.786907,250.777059 175.555791,249.849842 173.701357,247.995408 C171.904874,246.140974 171.006633,243.938834 171.006633,241.388987 C171.006633,238.83914 171.904874,236.637 173.701357,234.782566 C175.555791,232.986083 177.786907,232.087842 180.394705,232.087842 L181.698604,232.174768 L181.698604,231.827062 C181.119093,224.641131 177.468176,221.453822 170.745853,222.265137 C163.907628,223.308256 158.170473,231.566282 153.534388,247.039215 L100.769948,247.039215 L97.7275171,231.566282 C95.2356215,220.555581 89.9910506,216.614909 81.9938042,219.744266 C77.7054258,221.366896 76.8941109,225.539372 79.5598597,232.261695 L81.5591713,232.087842 C84.109018,232.087842 86.3111582,232.986083 88.1655922,234.782566 C89.962075,236.637 90.8603165,238.83914 90.8603165,241.388987 C90.8603165,243.938834 89.962075,246.140974 88.1655922,247.995408 C86.3111582,249.849842 84.109018,250.777059 81.5591713,250.777059 C79.0093246,250.777059 76.8071843,249.849842 74.9527504,247.995408 C73.1562675,246.140974 72.2580261,243.938834 72.2580261,241.388987 C72.2580261,239.650455 72.6926591,238.056801 73.561925,236.608025 L69.2155954,231.218576 C62.2614682,221.135091 62.2614682,211.862922 69.2155954,203.402067 L72.2580261,200.098857 C83.6164339,191.811855 96.2787406,192.333414 110.244946,201.663535 C109.781338,176.396873 117.372927,161.648328 133.019713,157.417901 C147.449527,155.563467 157.040427,159.880821 161.792414,170.369963 C164.28431,170.369963 166.457475,171.29718 168.311909,173.151613 C170.108392,175.006047 171.006633,177.208188 171.006633,179.758034 C171.006633,182.307881 170.108392,184.481046 168.311909,186.277529 C166.457475,188.189914 164.255334,189.146106 161.705488,189.146106 C159.155641,189.146106 156.953501,188.189914 155.099067,186.277529 C153.302584,184.481046 152.404343,182.307881 152.404343,179.758034 C152.404343,177.208188 153.302584,175.006047 155.099067,173.151613 L155.79448,172.543127 C148.492646,166.574168 143.132173,168.57348 139.71306,178.541062 C136.293948,188.856351 137.887602,199.055737 144.494023,209.139222 L144.667876,208.965369 L145.797922,207.40069 C151.766881,200.27271 160.053883,197.954667 170.658927,200.446563 C175.990424,201.837388 180.42368,204.213382 183.958695,207.574543" id="path-3"></path>
        <filter x="-21.1%" y="-28.8%" width="142.2%" height="157.6%" filterUnits="objectBoundingBox" id="filter-4">
            <feMorphology radius="7" operator="dilate" in="SourceAlpha" result="shadowSpreadOuter1"></feMorphology>
            <feOffset dx="0" dy="0" in="shadowSpreadOuter1" result="shadowOffsetOuter1"></feOffset>
            <feMorphology radius="7" operator="erode" in="SourceAlpha" result="shadowInner"></feMorphology>
            <feOffset dx="0" dy="0" in="shadowInner" result="shadowInner"></feOffset>
            <feComposite in="shadowOffsetOuter1" in2="shadowInner" operator="out" result="shadowOffsetOuter1"></feComposite>
            <feGaussianBlur stdDeviation="5" in="shadowOffsetOuter1" result="shadowBlurOuter1"></feGaussianBlur>
            <feColorMatrix values="0 0 0 0 0.623018569   0 0 0 0 0.289483375   0 0 0 0 0  0 0 0 1 0" type="matrix" in="shadowBlurOuter1"></feColorMatrix>
        </filter>
    </defs>
    <g id="joker" stroke="none" stroke-width="1" fill="none" fill-rule="evenodd">
        <rect fill="#0B0133" x="0" y="0" width="256" height="336"></rect>
        <text id="JOKER" font-family="OdibeeSans-Regular, Odibee Sans" font-size="82" font-weight="normal" fill="#FF9539">
            <tspan x="60.069" y="73">JOKER</tspan>
        </text>
        <g id="Rectangle">
            <use fill="black" fill-opacity="1" filter="url(#filter-2)" xlink:href="#path-1"></use>
            <use fill="#FF9539" fill-rule="evenodd" xlink:href="#path-1"></use>
        </g>
        <g id="Path" fill-rule="nonzero">
            <use fill="black" fill-opacity="1" filter="url(#filter-4)" xlink:href="#path-3"></use>
            <use stroke="#FF9539" stroke-width="4" xlink:href="#path-3"></use>
        </g>
    </g>
</svg>