<?xml version="1.0" encoding="UTF-8"?>
<svg width="256px" height="336px" viewBox="0 0 256 336" version="1.1" xmlns="http://www.w3.org/2000/svg" xmlns:xlink="http://www.w3.org/1999/xlink">
    <!-- Generator: Sketch 63.1 (92452) - https://sketch.com -->
    <title>spade-9</title>
    <desc>Created with Sketch.</desc>
    <defs>
        <rect id="path-1" x="0" y="94" width="256" height="2"></rect>
        <filter x="-4.7%" y="-600.0%" width="109.4%" height="1300.0%" filterUnits="objectBoundingBox" id="filter-2">
            <feMorphology radius="2" operator="dilate" in="SourceAlpha" result="shadowSpreadOuter1"></feMorphology>
            <feOffset dx="0" dy="0" in="shadowSpreadOuter1" result="shadowOffsetOuter1"></feOffset>
            <feGaussianBlur stdDeviation="2" in="shadowOffsetOuter1" result="shadowBlurOuter1"></feGaussianBlur>
            <feColorMatrix values="0 0 0 0 0.273068281   0 0 0 0 0.0198342413   0 0 0 0 0.517861187  0 0 0 1 0" type="matrix" in="shadowBlurOuter1"></feColorMatrix>
        </filter>
        <path d="M153.37598,176.43746 L181.522263,206.997884 C190.239484,218.894885 192.234103,229.899612 187.506118,240.012063 C181.448388,252.503915 170.662673,258.303704 155.148974,257.411429 L133.873043,251.61164 L137.86228,266.780317 C140.521772,271.539118 144.658758,276.892769 150.27324,282.84127 L105.283512,282.84127 C111.045743,276.892769 115.256604,271.539118 117.916095,266.780317 L121.905332,251.61164 C115.552103,254.883316 108.534001,256.816578 100.851026,257.411429 C85.1895774,258.303704 74.4038626,252.503915 68.493882,240.012063 C63.7658974,229.899612 65.7605159,218.894885 74.4777374,206.997884 L103.067269,176.43746 L127.445939,149 L153.37598,176.43746 Z" id="path-3"></path>
        <filter x="-21.8%" y="-22.7%" width="143.6%" height="142.9%" filterUnits="objectBoundingBox" id="filter-4">
            <feMorphology radius="7" operator="dilate" in="SourceAlpha" result="shadowSpreadOuter1"></feMorphology>
            <feOffset dx="0" dy="0" in="shadowSpreadOuter1" result="shadowOffsetOuter1"></feOffset>
            <feMorphology radius="7" operator="erode" in="SourceAlpha" result="shadowInner"></feMorphology>
            <feOffset dx="0" dy="0" in="shadowInner" result="shadowInner"></feOffset>
            <feComposite in="shadowOffsetOuter1" in2="shadowInner" operator="out" result="shadowOffsetOuter1"></feComposite>
            <feGaussianBlur stdDeviation="5" in="shadowOffsetOuter1" result="shadowBlurOuter1"></feGaussianBlur>
            <feColorMatrix values="0 0 0 0 0.274509804   0 0 0 0 0.0196078431   0 0 0 0 0.517647059  0 0 0 1 0" type="matrix" in="shadowBlurOuter1"></feColorMatrix>
        </filter>
    </defs>
    <g id="spade-9" stroke="none" stroke-width="1" fill="none" fill-rule="evenodd">
        <rect fill="#0B0133" x="0" y="0" width="256" height="336"></rect>
        <text id="9" font-family="OdibeeSans-Regular, Odibee Sans" font-size="82" font-weight="normal" fill="#A95DF2">
            <tspan x="171.41" y="74">9</tspan>
        </text>
        <g id="Rectangle">
            <use fill="black" fill-opacity="1" filter="url(#filter-2)" xlink:href="#path-1"></use>
            <use fill="#B465FF" fill-rule="evenodd" xlink:href="#path-1"></use>
        </g>
        <g id="Path">
            <use fill="black" fill-opacity="1" filter="url(#filter-4)" xlink:href="#path-3"></use>
            <use stroke="#B465FF" stroke-width="4" xlink:href="#path-3"></use>
        </g>
        <path d="M239.73006,37.1955556 L246.085672,44.0962963 C248.054077,46.782716 248.504475,49.2676543 247.436865,51.5511111 C246.068991,54.3718519 243.633507,55.6814815 240.130413,55.48 L235.326171,54.1703704 L236.226967,57.5955556 C236.827497,58.6701235 237.761655,59.8790123 239.029441,61.2222222 L228.87047,61.2222222 C230.171619,59.8790123 231.122459,58.6701235 231.722989,57.5955556 L232.623785,54.1703704 C231.189185,54.9091358 229.604452,55.345679 227.869587,55.48 C224.33313,55.6814815 221.897646,54.3718519 220.563135,51.5511111 C219.495525,49.2676543 219.945923,46.782716 221.914328,44.0962963 L228.370028,37.1955556 L233.87489,31 L239.73006,37.1955556 Z" id="Path-Copy" fill="#A95DF2"></path>
    </g>
</svg>